<svg width="55" height="60" viewBox="0 0 55 60" fill="none" xmlns="http://www.w3.org/2000/svg">
<g filter="url(#filter0_d_479_82)">
<path d="M4.94388 1.5084C4.346 2.11811 4 3.06739 4 4.29673V48.1467C4 49.376 4.346 50.3253 4.94388 50.935L5.09144 51.0688L30.3141 26.5067V25.9268L5.09144 1.36465L4.94388 1.5084Z" fill="url(#paint0_linear_479_82)"/>
<path d="M38.7122 34.6982L30.314 26.5067V25.9268L38.7224 17.7353L38.9107 17.8418L48.8685 23.3615C51.7103 24.9279 51.7103 27.5056 48.8685 29.0819L38.9107 34.5917L38.7122 34.6982Z" fill="url(#paint1_linear_479_82)"/>
<path d="M38.9108 34.5915L30.3141 26.2166L4.94385 50.9349C5.88773 51.9015 7.42694 52.018 9.17731 51.0514L38.9108 34.5915Z" fill="url(#paint2_linear_479_82)"/>
<path d="M38.9108 17.8414L9.17731 1.38157C7.42694 0.424858 5.88773 0.541347 4.94385 1.50797L30.3141 26.2163L38.9108 17.8414Z" fill="url(#paint3_linear_479_82)"/>
</g>
<defs>
<filter id="filter0_d_479_82" x="0" y="0.720703" width="54.9998" height="59" filterUnits="userSpaceOnUse" color-interpolation-filters="sRGB">
<feFlood flood-opacity="0" result="BackgroundImageFix"/>
<feColorMatrix in="SourceAlpha" type="matrix" values="0 0 0 0 0 0 0 0 0 0 0 0 0 0 0 0 0 0 127 0" result="hardAlpha"/>
<feOffset dy="4"/>
<feGaussianBlur stdDeviation="2"/>
<feComposite in2="hardAlpha" operator="out"/>
<feColorMatrix type="matrix" values="0 0 0 0 0 0 0 0 0 0 0 0 0 0 0 0 0 0 0.07 0"/>
<feBlend mode="normal" in2="BackgroundImageFix" result="effect1_dropShadow_479_82"/>
<feBlend mode="normal" in="SourceGraphic" in2="effect1_dropShadow_479_82" result="shape"/>
</filter>
<linearGradient id="paint0_linear_479_82" x1="28.0747" y1="48.6033" x2="-5.19034" y2="14.4574" gradientUnits="userSpaceOnUse">
<stop stop-color="#00A0FF"/>
<stop offset="0.0066" stop-color="#00A1FF"/>
<stop offset="0.2601" stop-color="#00BEFF"/>
<stop offset="0.5122" stop-color="#00D2FF"/>
<stop offset="0.7604" stop-color="#00DFFF"/>
<stop offset="1" stop-color="#00E3FF"/>
</linearGradient>
<linearGradient id="paint1_linear_479_82" x1="52.569" y1="26.214" x2="3.32052" y2="26.214" gradientUnits="userSpaceOnUse">
<stop stop-color="#FFE000"/>
<stop offset="0.4087" stop-color="#FFBD00"/>
<stop offset="0.7754" stop-color="#FFA500"/>
<stop offset="1" stop-color="#FF9C00"/>
</linearGradient>
<linearGradient id="paint2_linear_479_82" x1="34.2362" y1="21.6639" x2="-10.8739" y2="-24.6408" gradientUnits="userSpaceOnUse">
<stop stop-color="#FF3A44"/>
<stop offset="1" stop-color="#C31162"/>
</linearGradient>
<linearGradient id="paint3_linear_479_82" x1="-1.44238" y1="65.5232" x2="18.7013" y2="44.8463" gradientUnits="userSpaceOnUse">
<stop stop-color="#32A071"/>
<stop offset="0.0685" stop-color="#2DA771"/>
<stop offset="0.4762" stop-color="#15CF74"/>
<stop offset="0.8009" stop-color="#06E775"/>
<stop offset="1" stop-color="#00F076"/>
</linearGradient>
</defs>
</svg>
