<svg xmlns="http://www.w3.org/2000/svg" width="55" height="60" fill="none" viewBox="0 0 55 60"><g filter="url(#a)"><path fill="url(#b)" d="M4.944 1.508C4.346 2.118 4 3.068 4 4.297v43.85c0 1.229.346 2.178.944 2.788l.147.134 25.223-24.562v-.58L5.091 1.365z"/><path fill="url(#c)" d="m38.712 34.698-8.398-8.191v-.58l8.408-8.192.189.107 9.957 5.52c2.842 1.566 2.842 4.144 0 5.72l-9.957 5.51z"/><path fill="url(#d)" d="m38.91 34.592-8.596-8.375-25.37 24.718c.944.966 2.483 1.083 4.233.116z"/><path fill="url(#e)" d="M38.91 17.841 9.178 1.381c-1.75-.956-3.29-.84-4.233.127l25.37 24.708z"/></g><defs><linearGradient id="b" x1="28.0747" x2="-5.19034" y1="48.6033" y2="14.4574" gradientUnits="userSpaceOnUse"><stop stop-color="#00A0FF"/><stop offset="0.0066" stop-color="#00A1FF"/><stop offset="0.2601" stop-color="#00BEFF"/><stop offset="0.5122" stop-color="#00D2FF"/><stop offset="0.7604" stop-color="#00DFFF"/><stop offset="1" stop-color="#00E3FF"/></linearGradient><linearGradient id="c" x1="52.569" x2="3.32052" y1="26.214" y2="26.214" gradientUnits="userSpaceOnUse"><stop stop-color="#FFE000"/><stop offset="0.4087" stop-color="#FFBD00"/><stop offset="0.7754" stop-color="orange"/><stop offset="1" stop-color="#FF9C00"/></linearGradient><linearGradient id="d" x1="34.2362" x2="-10.8739" y1="21.6639" y2="-24.6408" gradientUnits="userSpaceOnUse"><stop stop-color="#FF3A44"/><stop offset="1" stop-color="#C31162"/></linearGradient><linearGradient id="e" x1="-1.44238" x2="18.7013" y1="65.5232" y2="44.8463" gradientUnits="userSpaceOnUse"><stop stop-color="#32A071"/><stop offset="0.0685" stop-color="#2DA771"/><stop offset="0.4762" stop-color="#15CF74"/><stop offset="0.8009" stop-color="#06E775"/><stop offset="1" stop-color="#00F076"/></linearGradient><filter id="a" width="54.9998" height="59" x="0" y="0.720703" color-interpolation-filters="sRGB" filterUnits="userSpaceOnUse"><feFlood flood-opacity="0" result="BackgroundImageFix"/><feColorMatrix in="SourceAlpha" result="hardAlpha" values="0 0 0 0 0 0 0 0 0 0 0 0 0 0 0 0 0 0 127 0"/><feOffset dy="4"/><feGaussianBlur stdDeviation="2"/><feComposite in2="hardAlpha" operator="out"/><feColorMatrix values="0 0 0 0 0 0 0 0 0 0 0 0 0 0 0 0 0 0 0.07 0"/><feBlend in2="BackgroundImageFix" result="effect1_dropShadow_479_82"/><feBlend in="SourceGraphic" in2="effect1_dropShadow_479_82" result="shape"/></filter></defs></svg>